<svg width="439" height="93" viewBox="0 0 439 93" fill="none" xmlns="http://www.w3.org/2000/svg">
<path d="M0.7725 7.032C0.7725 5.41066 1.36983 4.088 2.5645 3.064C3.75917 1.95466 5.20983 1.39999 6.9165 1.39999H63.6205C63.6205 4.98399 62.8952 7.62933 61.4445 9.336C59.9938 11.0427 57.7325 11.896 54.6605 11.896H12.8045V40.568H48.6445C48.6445 44.152 47.9192 46.7973 46.4685 48.504C45.0178 50.2107 42.7992 51.064 39.8125 51.064H12.8045V80.504H57.3485C60.3352 80.504 62.5538 81.3573 64.0045 83.064C65.4552 84.7707 66.1805 87.416 66.1805 91H6.9165C5.20983 91 3.75917 90.488 2.5645 89.464C1.36983 88.3547 0.7725 86.9893 0.7725 85.368V7.032ZM100.748 92.152C95.5422 92.152 90.8915 91.2133 86.7955 89.336C82.6995 87.4587 79.4995 84.8133 77.1955 81.4C74.9768 77.9867 73.8675 74.104 73.8675 69.752V49.016C73.8675 44.4933 74.9768 40.4827 77.1955 36.984C79.4995 33.4853 82.6568 30.7547 86.6675 28.792C90.6782 26.8293 95.2862 25.848 100.492 25.848C105.356 25.848 109.665 26.5733 113.42 28.024C117.26 29.3893 120.246 31.352 122.38 33.912C124.513 36.472 125.58 39.3733 125.58 42.616C125.58 44.7493 124.726 46.4987 123.02 47.864C121.398 49.144 119.265 49.6987 116.62 49.528C116.62 45.432 115.126 42.104 112.14 39.544C109.238 36.984 105.441 35.704 100.748 35.704C96.0542 35.704 92.2568 36.984 89.3555 39.544C86.4542 42.0187 85.0035 45.2613 85.0035 49.272V69.24C85.0035 73.08 86.4968 76.2373 89.4835 78.712C92.4702 81.1013 96.3102 82.296 101.004 82.296C105.697 82.296 109.494 81.016 112.396 78.456C115.382 75.896 116.876 72.6107 116.876 68.6C119.606 68.4293 121.782 68.984 123.404 70.264C125.11 71.4587 125.964 73.1653 125.964 75.384C125.964 78.6267 124.897 81.528 122.764 84.088C120.63 86.648 117.644 88.6533 113.804 90.104C109.964 91.4693 105.612 92.152 100.748 92.152ZM161.718 92.152C156.512 92.152 151.776 91.1707 147.51 89.208C143.328 87.2453 140.043 84.6 137.654 81.272C135.35 77.8587 134.198 74.0613 134.198 69.88V48.888C134.198 44.6213 135.35 40.7387 137.654 37.24C140.043 33.7413 143.328 30.968 147.51 28.92C151.691 26.872 156.427 25.848 161.718 25.848C167.008 25.848 171.744 26.872 175.926 28.92C180.192 30.968 183.478 33.7413 185.782 37.24C188.171 40.7387 189.366 44.6213 189.366 48.888V69.88C189.366 74.0613 188.171 77.8587 185.782 81.272C183.392 84.6 180.107 87.2453 175.926 89.208C171.744 91.1707 167.008 92.152 161.718 92.152ZM161.718 82.552C166.838 82.552 170.891 81.3573 173.878 78.968C176.95 76.4933 178.486 73.2933 178.486 69.368V49.272C178.486 45.176 176.95 41.848 173.878 39.288C170.891 36.728 166.838 35.448 161.718 35.448C156.683 35.448 152.63 36.728 149.558 39.288C146.486 41.848 144.95 45.176 144.95 49.272V69.368C144.95 73.2933 146.443 76.4933 149.43 78.968C152.502 81.3573 156.598 82.552 161.718 82.552ZM213.025 12.024H181.793C181.793 4.94133 185.121 1.39999 191.777 1.39999H256.161C256.161 8.48266 252.833 12.024 246.177 12.024H225.057V82.168C225.057 85.4107 224.033 87.8853 221.985 89.592C219.937 91.2987 216.95 92.152 213.025 92.152V12.024ZM277.501 92.152C272.295 92.152 267.645 91.1707 263.549 89.208C259.453 87.16 256.253 84.3867 253.949 80.888C251.645 77.304 250.493 73.2933 250.493 68.856V49.912C250.493 45.3893 251.687 41.2933 254.077 37.624C256.551 33.9547 259.837 31.096 263.933 29.048C268.114 26.9147 272.637 25.848 277.501 25.848C282.365 25.848 286.802 26.872 290.813 28.92C294.909 30.968 298.109 33.784 300.413 37.368C302.802 40.952 303.997 45.0053 303.997 49.528V57.72C303.997 59.0853 303.485 60.2373 302.461 61.176C301.437 62.1147 300.199 62.584 298.749 62.584H261.373V68.344C261.373 72.696 262.738 76.1947 265.469 78.84C268.285 81.4853 272.295 82.808 277.501 82.808C282.706 82.808 286.674 81.656 289.405 79.352C292.135 77.048 293.501 73.9333 293.501 70.008C296.061 69.8373 298.194 70.3493 299.901 71.544C301.693 72.6533 302.589 74.3173 302.589 76.536C302.589 79.2667 301.394 81.8267 299.005 84.216C296.701 86.6053 293.629 88.5253 289.789 89.976C285.949 91.4267 281.853 92.152 277.501 92.152ZM293.629 53.88V49.528C293.629 45.2613 292.135 41.8053 289.149 39.16C286.247 36.4293 282.365 35.064 277.501 35.064C272.637 35.064 268.711 36.4293 265.725 39.16C262.823 41.8053 261.373 45.2613 261.373 49.528V53.88H293.629ZM344.373 92.152C339.167 92.152 334.517 91.2133 330.421 89.336C326.325 87.4587 323.125 84.8133 320.821 81.4C318.602 77.9867 317.493 74.104 317.493 69.752V49.016C317.493 44.4933 318.602 40.4827 320.821 36.984C323.125 33.4853 326.282 30.7547 330.293 28.792C334.303 26.8293 338.911 25.848 344.117 25.848C348.981 25.848 353.29 26.5733 357.045 28.024C360.885 29.3893 363.871 31.352 366.005 33.912C368.138 36.472 369.205 39.3733 369.205 42.616C369.205 44.7493 368.351 46.4987 366.645 47.864C365.023 49.144 362.89 49.6987 360.245 49.528C360.245 45.432 358.751 42.104 355.765 39.544C352.863 36.984 349.066 35.704 344.373 35.704C339.679 35.704 335.882 36.984 332.981 39.544C330.079 42.0187 328.628 45.2613 328.628 49.272V69.24C328.628 73.08 330.122 76.2373 333.109 78.712C336.095 81.1013 339.935 82.296 344.629 82.296C349.322 82.296 353.119 81.016 356.021 78.456C359.007 75.896 360.501 72.6107 360.501 68.6C363.231 68.4293 365.407 68.984 367.029 70.264C368.735 71.4587 369.589 73.1653 369.589 75.384C369.589 78.6267 368.522 81.528 366.389 84.088C364.255 86.648 361.269 88.6533 357.429 90.104C353.589 91.4693 349.237 92.152 344.373 92.152ZM384.273 9.71999C384.273 6.648 385.211 4.30133 387.089 2.67999C388.966 1.05866 391.739 0.247993 395.409 0.247993V33.912C394.214 35.2773 393.275 36.472 392.593 37.496L393.105 38.008C395.75 34.424 399.078 31.5227 403.089 29.304C407.099 27 411.451 25.848 416.145 25.848C423.057 25.848 428.518 27.896 432.529 31.992C436.539 36.088 438.545 41.3787 438.545 47.864V83.96C438.545 86.776 437.606 88.8667 435.729 90.232C433.937 91.512 431.163 92.152 427.409 92.152V49.016C427.409 44.92 426.257 41.6773 423.953 39.288C421.649 36.8987 418.15 35.704 413.457 35.704C410.299 35.704 407.313 36.3867 404.497 37.752C401.766 39.032 399.547 40.824 397.841 43.128C396.219 45.3467 395.409 47.7787 395.409 50.424V83.96C395.409 86.776 394.47 88.8667 392.593 90.232C390.801 91.512 388.027 92.152 384.273 92.152V9.71999Z" fill="white"/>
</svg>
